<svg viewBox="0 0 212.6 212.6" xmlns="http://www.w3.org/2000/svg"><circle cx="106.3" cy="106.3" fill="#fff" r="91.3" stroke="#040000" stroke-miterlimit="10" stroke-width="30"/><circle cx="105.95" cy="106.45" fill="none" r="91.3"/><path d="m71.01 30.66-.29-15.12 4.43-1.6 9.42 11.83-3.52 1.27-2.64-3.31-3.93 2.77.05 2.89zm3.41-7.73 2.13-1.51-2.2-2.78z" fill="#fff"/><path d="m97.5 14.71.46 3.05-6.98 1.04.4 2.66 7.5-1.12.45 3.04-11.19 1.67-2.12-14.16 11.01-1.65.46 3.06-7.32 1.09.35 2.34 6.98-1.04z" fill="#fff"/><path d="m110.94 20.75c.95.05 1.75-.12 2.39-.54.63-.4 1.03-1.01 1.2-1.82l-3.78-.21.17-3.08 7.53.41-.11 1.99c-.06 1.11-.31 2.07-.71 2.87-.44.82-.98 1.48-1.66 2.01-.69.52-1.49.91-2.37 1.17-.89.24-1.83.33-2.8.28-1.09-.06-2.09-.31-3-.72-.93-.43-1.73-.99-2.37-1.68-.66-.7-1.16-1.52-1.5-2.47-.36-.94-.5-1.95-.44-3.06.06-1.09.31-2.09.77-3 .44-.89 1.03-1.65 1.78-2.29.72-.61 1.57-1.08 2.56-1.41.97-.31 2-.45 3.11-.39 1.47.08 2.74.46 3.79 1.11 1.04.67 1.96 1.62 2.76 2.85l-2.57 1.93c-.41-.81-.95-1.47-1.64-1.98-.71-.51-1.56-.79-2.56-.84-.54-.03-1.06.05-1.56.24-.51.19-.94.47-1.32.83-.4.37-.71.82-.95 1.35-.26.54-.4 1.15-.44 1.81-.04.68.02 1.28.21 1.83.17.57.43 1.05.77 1.44.34.41.73.74 1.22.97.46.24.97.38 1.54.41z" fill="#fff"/><path d="m129.03 11.75-3.11 13.97-3.65-.81 3.11-13.97z" fill="#fff"/><path d="m133.39 22.91c.39.73.92 1.41 1.61 2.03.66.62 1.43 1.09 2.27 1.4.55.21.99.29 1.32.22.31-.05.53-.24.66-.56.14-.37.1-.71-.09-1.06-.22-.33-.64-.73-1.25-1.2-.54-.4-1.07-.82-1.61-1.26-.57-.43-1.04-.9-1.41-1.43-.4-.52-.65-1.1-.78-1.73-.14-.63-.06-1.33.25-2.14.27-.7.64-1.25 1.12-1.66.46-.4.99-.68 1.61-.82.59-.14 1.24-.16 1.94-.08.68.09 1.38.26 2.08.54.49.19.94.4 1.37.64.41.24.81.5 1.19.81.36.31.71.66 1.07 1.03.32.37.66.79.99 1.27l-2.41 2.15c-.38-.61-.85-1.18-1.4-1.66-.56-.49-1.21-.87-1.9-1.17-.23-.09-.45-.17-.66-.24-.23-.05-.43-.07-.61-.06-.2.02-.36.07-.48.14-.15.08-.25.19-.31.36-.07.17-.11.32-.08.47-.02.15.03.32.14.48.09.17.26.37.51.58.22.22.53.47.95.77.63.47 1.23.96 1.79 1.4.53.47.98.96 1.33 1.46.34.52.55 1.08.63 1.67.07.61-.03 1.28-.32 2.02-.27.7-.64 1.25-1.1 1.65s-1.02.69-1.61.84c-.62.15-1.28.18-2 .09-.73-.09-1.49-.29-2.26-.58-1.12-.43-2.1-1-2.92-1.71-.84-.71-1.57-1.53-2.16-2.43l2.55-2.23z" fill="#fff"/><path d="m152.78 100c-2.71-9.05-5.43-28.84-1.36-41.26.39-1.19-.8-2.28-1.96-1.81-7.6 3.11-26.79 8.64-42.22-6.42-.59-.58-1.51-.58-2.1 0-15.43 15.06-34.62 9.53-42.22 6.42-1.16-.47-2.35.62-1.96 1.81 4.07 12.43 1.36 32.22-1.36 41.26-2.97 9.91-7.93 44.61 17.84 50.56 18.34 4.23 25.14 10.98 27.53 14.51.58.86 1.85.86 2.43 0 2.39-3.54 9.19-10.28 27.53-14.51 25.78-5.95 20.82-40.65 17.84-50.56z" fill="#040000" stroke="#070102" stroke-miterlimit="10" stroke-width="3"/><g fill="#fff"><path d="m121.56 123.31c0-1.4.63-2.72 1.71-3.61l1.95-1.6c.51-.42.21-1.24-.44-1.24h-4.12c-.2 0-.34-.19-.29-.38l1.18-4.4c1.42-3.2 2.29-6.89 2.45-10.83 8.96-1.87 14.89-4.98 14.89-8.03s-5.35-5.06-13.56-6.32c0-.2.02-.4 0-.6l-.35-9.9c-.16-4.53-3.73-8.12-8.08-8.12l-10.53.99-10.95-.99c-4.35 0-7.92 3.59-8.08 8.12l-.35 9.9v.6c-8.21 1.26-13.56 3.43-13.56 6.32 0 3.05 5.93 6.16 14.89 8.03.15 3.94 1.03 7.62 2.45 10.83l1.51 4.23c.09.27-.1.55-.38.55h-4.35c-.66 0-.95.82-.44 1.24l1.96 1.6c1.08.89 1.71 2.21 1.71 3.61-12.88 2.57-23.41 8.29-29.1 15.66 3.09 5.47 8.03 9.82 15.72 11.59 18.34 4.23 25.14 10.98 27.53 14.51.58.86 1.85.86 2.43 0 2.39-3.54 9.19-10.28 27.53-14.51 7.69-1.78 12.63-6.12 15.72-11.59-5.69-7.36-16.21-13.08-29.1-15.66z"/><path d="m195.71 123.16s-13.59 13.87-7.66 20.91c0 0 10.08-10.9 7.66-20.91z"/><path d="m181.01 162.28s1.93-4.28-.41-10.49c-2.35-6.21 1.17-9.18 3.8-12.35 0 0 7.45 16.84-3.38 22.84z"/><path d="m194.4 137.02s-5.08 8.05-4.69 12.14c.28 2.9-1.66 7.18-1.66 7.18s11.18-11.59 6.35-19.32z"/><path d="m196.19 149.72s-7.18 10.63-19.8 16.21c0 0 16.63 5.73 19.8-16.21z"/><path d="m180.46 156.48s-13.59 1.59-15.66 10.56-2.49 10.76-6.21 14.63c0 0 10.5-4.29 14.91-15.45 1.2-3.03 1.24-5.38 6.97-9.73z"/><path d="m185.15 168.9s-8.07-1.86-12.21 3.79c-4.14 5.66-7.45 7.73-7.45 7.73s13.18.21 19.67-11.52z"/><path d="m18.31 123.46s13.59 13.87 7.66 20.91c0 0-10.08-10.9-7.66-20.91z"/><path d="m33.02 162.58s-1.93-4.28.41-10.49c2.35-6.21-1.17-9.18-3.8-12.35 0 0-7.45 16.84 3.38 22.84z"/><path d="m19.63 137.33s5.08 8.05 4.69 12.14c-.28 2.9 1.66 7.18 1.66 7.18s-11.18-11.59-6.35-19.32z"/><path d="m17.83 150.03s7.18 10.63 19.8 16.21c0 0-16.63 5.73-19.8-16.21z"/><path d="m33.57 156.79s13.59 1.59 15.66 10.56 2.49 10.76 6.21 14.63c0 0-10.5-4.29-14.91-15.45-1.2-3.03-1.24-5.38-6.97-9.73z"/><path d="m28.88 169.21s8.07-1.86 12.21 3.79c4.14 5.66 7.45 7.73 7.45 7.73s-13.18.21-19.67-11.52z"/></g></svg>